<?xml version="1.0" encoding="utf-8"?>
<!-- Generator: Adobe Illustrator 16.0.0, SVG Export Plug-In . SVG Version: 6.00 Build 0)  -->
<svg version="1.2" baseProfile="tiny" id="Layer_1" xmlns="http://www.w3.org/2000/svg" xmlns:xlink="http://www.w3.org/1999/xlink"
	 x="0px" y="0px" width="272.992px" height="61.317px" viewBox="0 0 272.992 61.317" xml:space="preserve">
<path fill="#474443" d="M110.161,18.39c0.217,0.325,0.437,0.649,0.437,1.081c0,0.867-0.652,1.463-1.519,1.463
	c-0.484,0-0.812-0.163-1.136-0.596c-2.709-3.409-5.957-5.792-11.643-5.792c-9.364,0-14.777,7.469-14.777,15.7
	c0,8.227,5.413,15.701,14.777,15.701c5.686,0,8.934-2.383,11.643-5.795c0.323-0.432,0.651-0.595,1.136-0.595
	c0.866,0,1.519,0.595,1.519,1.462c0,0.432-0.22,0.758-0.437,1.084c-2.922,3.844-7.415,6.82-13.86,6.82
	c-10.934,0-18.027-8.393-18.027-18.678c0-10.287,7.094-18.678,18.027-18.678C102.746,11.569,107.239,14.546,110.161,18.39z"/>
<path fill="#474443" d="M122.775,48.924c-7.254,0-12.346-5.521-12.346-12.398c0-6.875,5.092-12.398,12.346-12.398
	c7.252,0,12.343,5.522,12.343,12.398C135.118,43.403,130.027,48.924,122.775,48.924z M122.775,26.944
	c-5.089,0-9.098,4.059-9.098,9.582c0,5.523,4.009,9.584,9.098,9.584s9.096-4.061,9.096-9.584
	C131.871,31.003,127.864,26.944,122.775,26.944z"/>
<path fill="#474443" d="M140.096,29.109c2.061-3.086,5.361-4.981,9.689-4.981c6.609,0,11.857,5.198,11.857,12.398
	c0,7.201-5.248,12.398-11.857,12.398c-4.328,0-7.629-1.895-9.689-4.98v13.264c0,0.921-0.705,1.625-1.624,1.625
	c-0.921,0-1.624-0.704-1.624-1.625V25.97c0-0.922,0.703-1.625,1.624-1.625c0.919,0,1.624,0.703,1.624,1.625V29.109z M149.301,26.889
	c-5.58,0-9.205,4.387-9.205,9.637c0,5.252,3.625,9.637,9.205,9.637c5.414,0,9.096-4.006,9.096-9.637
	C158.396,30.896,154.715,26.889,149.301,26.889z"/>
<path fill="#474443" d="M181.35,26.511l-7.96,19.272c-2.11,5.035-5.521,9.908-10.339,12.777c-0.27,0.163-0.543,0.271-0.975,0.271
	c-0.868,0-1.41-0.596-1.41-1.354c0-0.598,0.326-0.977,0.975-1.354c2.979-2.059,5.199-4.277,7.364-8.014l-9.204-21.494
	c-0.107-0.271-0.217-0.541-0.217-0.812c0-0.812,0.598-1.462,1.517-1.462c0.759,0,1.137,0.379,1.407,1.029l8.176,19.273l8.012-19.381
	c0.218-0.542,0.597-0.921,1.354-0.921c0.919,0,1.462,0.65,1.462,1.462C181.512,26.022,181.46,26.239,181.35,26.511z"/>
<path fill="#474443" d="M194.983,14.924h0.975c0.759,0,1.352-0.595,1.352-1.353c0-0.759-0.593-1.353-1.352-1.353h-1.138
	c-6.115,0-8.661,3.302-8.661,9.202v3.357h-3.79c-0.759,0-1.354,0.597-1.354,1.354c0,0.758,0.595,1.354,1.354,1.354h3.79v19.599
	c0,0.921,0.702,1.624,1.625,1.624c0.921,0,1.625-0.703,1.625-1.624V27.485h6.169c0.705,0,1.354-0.596,1.354-1.354
	c0-0.757-0.649-1.354-1.354-1.354h-6.169v-3.409C189.409,16.548,191.247,14.924,194.983,14.924z"/>
<path fill="#474443" d="M202.088,20.067c1.086,0,2.002-0.921,2.002-2.003c0-1.083-0.916-2.003-2.002-2.003
	c-1.083,0-2.003,0.92-2.003,2.003C200.085,19.146,201.005,20.067,202.088,20.067z"/>
<path fill="#474443" d="M202.088,24.345c-0.918,0-1.625,0.703-1.625,1.625v21.114c0,0.921,0.707,1.624,1.625,1.624
	c0.923,0,1.625-0.703,1.625-1.624V25.97C203.713,25.048,203.011,24.345,202.088,24.345z"/>
<path fill="#474443" d="M218.911,48.167c-6.606,0-12.019-4.711-12.019-12.02c0-7.308,5.412-12.019,12.019-12.019
	c4.818,0,8.124,2.652,9.528,4.981V25.97c0-0.922,0.703-1.625,1.625-1.625s1.625,0.703,1.625,1.625v20.41
	c0,7.309-3.79,12.453-12.453,12.453c-4.223,0-7.527-1.139-9.638-2.438c-0.485-0.27-0.973-0.703-0.973-1.408
	c0-0.756,0.541-1.19,1.245-1.19c0.486,0,0.975,0.217,1.406,0.435c2.221,1.189,4.82,1.947,7.959,1.947
	c6.713,0,9.203-4.06,9.203-9.582v-3.411C226.545,46.271,222.756,48.167,218.911,48.167z M219.236,45.514
	c5.195,0,9.203-4.277,9.203-9.367c0-5.088-4.008-9.367-9.203-9.367c-5.414,0-9.147,3.683-9.147,9.367
	C210.089,41.831,213.822,45.514,219.236,45.514z"/>
<path fill="#474443" d="M257.132,47.083c0,0.921-0.706,1.624-1.626,1.624c-0.918,0-1.623-0.703-1.623-1.624V35.065
	c0-4.873-2.545-7.959-7.577-7.959c-4.604,0-8.122,3.357-8.122,8.663v11.314c0,0.921-0.703,1.624-1.625,1.624
	s-1.625-0.703-1.625-1.624V13.408c0-0.921,0.703-1.624,1.625-1.624s1.625,0.703,1.625,1.624v15.377
	c1.729-2.979,4.873-4.657,8.824-4.657c6.279,0,10.124,4.602,10.124,10.881V47.083z"/>
<path fill="#474443" d="M271.637,24.777c0.706,0,1.355,0.597,1.355,1.354c0,0.758-0.649,1.354-1.355,1.354h-5.467v19.599
	c0,0.921-0.703,1.624-1.623,1.624c-0.924,0-1.623-0.703-1.623-1.624V27.485h-4.82c-0.757,0-1.354-0.596-1.354-1.354
	c0-0.757,0.597-1.354,1.354-1.354h4.82v-7.579c0-0.92,0.699-1.623,1.623-1.623c0.92,0,1.623,0.703,1.623,1.623v7.579H271.637z"/>
<path fill="#474443" d="M30.66,0C13.754,0,0,13.753,0,30.658c0,16.758,13.517,30.41,30.22,30.647
	c0.147,0.002,0.293,0.012,0.44,0.012c16.836,0,30.541-13.643,30.652-30.454c0.001-0.068,0.006-0.136,0.006-0.205
	C61.318,13.753,47.564,0,30.66,0z M59.318,30.658c0,15.802-12.856,28.659-28.658,28.659c-0.859,0-1.708-0.045-2.549-0.119
	C13.499,57.903,2,45.601,2,30.658C2,14.856,14.857,2,30.66,2c15.178,0,27.631,11.862,28.592,26.802
	C59.291,29.417,59.318,30.034,59.318,30.658z"/>
<path fill="#474443" d="M56.451,26.002C54.253,13.748,43.546,4.446,30.66,4.446c-14.478,0-26.213,11.735-26.213,26.212
	c0,12.608,8.904,23.133,20.767,25.641c1.757,0.371,3.578,0.57,5.446,0.57c14.476,0,26.212-11.734,26.212-26.211
	C56.872,29.068,56.723,27.514,56.451,26.002z M43.29,18.846c-0.729,0-1.385-0.296-1.851-0.763c-0.956-0.928-2.281-1.507-3.74-1.507
	c-2.983,0-5.405,2.422-5.405,5.405c0,0.09,0,4.887,0,4.887c0,0.287,0.231,0.52,0.517,0.52l3.318-0.004
	c1.416-0.005,2.584,1.153,2.584,2.573c0,1.385-0.996,2.556-2.366,2.627c-0.019,0.002-0.221,0.014-0.267,0.014l-3.185-0.004
	c-0.288,0-0.52,0.231-0.52,0.518c0,0-0.001,0.004-0.001,0.006c-0.001,1.648-0.007,3.294,0.019,4.943c0,0.196-0.011,0.387-0.019,0.58
	c-0.254,5.57-5.092,9.977-10.613,10.062c-2.764,0.007-5.386-1.145-7.391-3.013l-0.259-0.256c-0.118-0.142-0.226-0.288-0.212-0.269
	c-5.784-7.216-1.54-17.232,7.104-17.601l0.512-0.028c1.412-0.003,2.619,1.069,2.619,2.504c0,1.439-1.056,2.594-2.483,2.601
	l-0.008-0.001c-2.987,0-5.406,2.421-5.406,5.404c0,1.381,0.496,2.641,1.353,3.602c0.114,0.082,0.219,0.172,0.323,0.274
	c0.994,0.966,2.325,1.552,3.791,1.552c2.972,0,5.39-2.408,5.404-5.38c0-0.009,0-0.018,0-0.025l-0.008-15.989
	c0-0.026,0-0.049,0-0.076c0-5.868,4.768-10.632,10.636-10.632c2.622,0,5.017,0.958,6.863,2.528l0.826,0.828
	c0.295,0.423,0.477,0.938,0.477,1.502C45.903,17.673,44.734,18.846,43.29,18.846z"/>
</svg>
