<?xml version="1.0" encoding="utf-8"?>
<!-- Generator: Adobe Illustrator 16.0.0, SVG Export Plug-In . SVG Version: 6.00 Build 0)  -->
<svg version="1.2" baseProfile="tiny" id="Layer_1" xmlns="http://www.w3.org/2000/svg" xmlns:xlink="http://www.w3.org/1999/xlink"
	 x="0px" y="0px" width="272.992px" height="61.316px" viewBox="0 0 272.992 61.316" xml:space="preserve">
<path fill="none" d="M122.775,26.985c-5.089,0-9.098,4.06-9.098,9.582s4.009,9.584,9.098,9.584s9.096-4.062,9.096-9.584
	S127.864,26.985,122.775,26.985z"/>
<path fill="none" d="M219.236,26.821c-5.414,0-9.147,3.682-9.147,9.368c0,5.684,3.733,9.365,9.147,9.365
	c5.195,0,9.203-4.276,9.203-9.365C228.439,31.099,224.432,26.821,219.236,26.821z"/>
<path fill="none" d="M149.301,26.929c-5.58,0-9.205,4.386-9.205,9.637c0,5.253,3.625,9.638,9.205,9.638
	c5.414,0,9.096-4.006,9.096-9.638C158.396,30.937,154.715,26.929,149.301,26.929z"/>
<path fill="#474443" d="M109.079,39.599c-0.484,0-0.812,0.162-1.136,0.596c-2.709,3.41-5.957,5.793-11.643,5.793
	c-9.364,0-14.777-7.473-14.777-15.7c0-8.231,5.413-15.7,14.777-15.7c5.686,0,8.934,2.382,11.643,5.792
	c0.323,0.434,0.651,0.596,1.136,0.596c0.866,0,1.519-0.596,1.519-1.463c0-0.432-0.22-0.756-0.437-1.081
	c-2.922-3.843-7.415-6.821-13.86-6.821c-10.934,0-18.027,8.391-18.027,18.678c0,10.286,7.094,18.678,18.027,18.678
	c6.445,0,10.938-2.978,13.86-6.821c0.217-0.324,0.437-0.65,0.437-1.084C110.598,40.195,109.945,39.599,109.079,39.599z"/>
<path fill="#474443" d="M122.775,24.169c-7.254,0-12.346,5.522-12.346,12.398c0,6.876,5.092,12.398,12.346,12.398
	c7.252,0,12.343-5.522,12.343-12.398C135.118,29.691,130.027,24.169,122.775,24.169z M122.775,46.151
	c-5.089,0-9.098-4.062-9.098-9.584s4.009-9.582,9.098-9.582s9.096,4.06,9.096,9.582S127.864,46.151,122.775,46.151z"/>
<path fill="#474443" d="M149.785,24.169c-4.328,0-7.629,1.895-9.689,4.981V26.01c0-0.922-0.705-1.625-1.624-1.625
	c-0.921,0-1.624,0.703-1.624,1.625v31.239c0,0.92,0.703,1.623,1.624,1.623c0.919,0,1.624-0.703,1.624-1.623V43.984
	c2.061,3.086,5.361,4.981,9.689,4.981c6.609,0,11.857-5.197,11.857-12.398C161.643,29.367,156.395,24.169,149.785,24.169z
	 M149.301,46.204c-5.58,0-9.205-4.385-9.205-9.638c0-5.251,3.625-9.637,9.205-9.637c5.414,0,9.096,4.007,9.096,9.637
	C158.396,42.198,154.715,46.204,149.301,46.204z"/>
<path fill="#474443" d="M181.393,25.235c-0.206-0.502-0.673-0.849-1.343-0.849c-0.758,0-1.137,0.379-1.354,0.921l-8.012,19.382
	l-8.176-19.274c-0.271-0.65-0.648-1.029-1.407-1.029c-0.919,0-1.517,0.65-1.517,1.462c0,0.271,0.109,0.541,0.217,0.812l9.204,21.494
	c-2.165,3.735-4.386,5.956-7.364,8.013c-0.648,0.379-0.975,0.758-0.975,1.354c0,0.758,0.542,1.354,1.41,1.354
	c0.432,0,0.705-0.107,0.975-0.27c4.818-2.87,8.229-7.742,10.339-12.777l7.834-18.968c-0.12-0.203-0.208-0.428-0.208-0.686
	C181.016,25.803,181.16,25.477,181.393,25.235z"/>
<path fill="#474443" d="M194.983,14.965h0.975c0.759,0,1.352-0.595,1.352-1.353c0-0.759-0.593-1.353-1.352-1.353h-1.138
	c-6.115,0-8.661,3.302-8.661,9.202v3.357h-3.79c-0.39,0-0.732,0.161-0.977,0.417c0.076,0.187,0.119,0.393,0.119,0.613
	c0,0.216-0.052,0.433-0.162,0.705l-0.126,0.305c0.233,0.395,0.645,0.668,1.146,0.668h3.79v19.599c0,0.92,0.702,1.625,1.625,1.625
	c0.921,0,1.625-0.705,1.625-1.625V27.526h6.169c0.705,0,1.354-0.596,1.354-1.354c0-0.757-0.649-1.354-1.354-1.354h-6.169v-3.409
	C189.409,16.589,191.247,14.965,194.983,14.965z"/>
<path fill="#474443" d="M181.512,25.847c0-0.22-0.043-0.426-0.119-0.613c-0.232,0.242-0.377,0.569-0.377,0.937
	c0,0.257,0.088,0.482,0.208,0.686l0.126-0.305C181.46,26.28,181.512,26.063,181.512,25.847z"/>
<path fill="#474443" d="M202.088,16.102c-1.083,0-2.003,0.92-2.003,2.003c0,1.082,0.92,2.003,2.003,2.003
	c1.086,0,2.002-0.921,2.002-2.003C204.09,17.022,203.174,16.102,202.088,16.102z"/>
<path fill="#474443" d="M202.088,24.385c-0.918,0-1.625,0.703-1.625,1.625v21.114c0,0.92,0.707,1.625,1.625,1.625
	c0.923,0,1.625-0.705,1.625-1.625V26.01C203.713,25.089,203.011,24.385,202.088,24.385z"/>
<path fill="#474443" d="M230.064,24.385c-0.922,0-1.625,0.703-1.625,1.625v3.139c-1.404-2.329-4.71-4.981-9.528-4.981
	c-6.606,0-12.019,4.711-12.019,12.02c0,7.308,5.412,12.018,12.019,12.018c3.845,0,7.634-1.895,9.528-4.98v3.41
	c0,5.523-2.49,9.584-9.203,9.584c-3.139,0-5.738-0.76-7.959-1.949c-0.432-0.217-0.92-0.434-1.406-0.434
	c-0.704,0-1.245,0.434-1.245,1.191c0,0.704,0.487,1.137,0.973,1.408c2.11,1.299,5.415,2.436,9.638,2.436
	c8.663,0,12.453-5.143,12.453-12.452V26.01C231.689,25.089,230.986,24.385,230.064,24.385z M219.236,45.554
	c-5.414,0-9.147-3.682-9.147-9.365c0-5.686,3.733-9.368,9.147-9.368c5.195,0,9.203,4.278,9.203,9.368
	C228.439,41.278,224.432,45.554,219.236,45.554z"/>
<path fill="#474443" d="M247.008,24.169c-3.951,0-7.095,1.679-8.824,4.657V13.449c0-0.921-0.703-1.624-1.625-1.624
	s-1.625,0.703-1.625,1.624v33.675c0,0.92,0.703,1.625,1.625,1.625s1.625-0.705,1.625-1.625V35.81c0-5.307,3.518-8.663,8.122-8.663
	c5.032,0,7.577,3.087,7.577,7.958v12.02c0,0.92,0.705,1.625,1.623,1.625c0.92,0,1.626-0.705,1.626-1.625V35.05
	C257.132,28.771,253.287,24.169,247.008,24.169z"/>
<path fill="#474443" d="M271.637,24.818h-5.467v-7.579c0-0.92-0.703-1.623-1.623-1.623c-0.924,0-1.623,0.703-1.623,1.623v7.579
	h-4.82c-0.757,0-1.354,0.597-1.354,1.354c0,0.758,0.597,1.354,1.354,1.354h4.82v19.599c0,0.92,0.699,1.625,1.623,1.625
	c0.92,0,1.623-0.705,1.623-1.625V27.526h5.467c0.706,0,1.355-0.596,1.355-1.354C272.992,25.415,272.343,24.818,271.637,24.818z"/>
<path fill="#D54F27" d="M2,30.658C2,14.856,14.857,2,30.66,2c15.087,0,27.477,11.722,28.568,26.535l2.089,2.089
	C61.299,13.735,47.553,0,30.66,0C13.754,0,0,13.753,0,30.658C0,47.335,13.387,60.93,29.978,61.296l-2.128-2.128
	C13.363,57.749,2,45.511,2,30.658z"/>
<path fill="#D54F27" d="M14.112,45.435c-0.118-0.143-0.226-0.289-0.212-0.27c-5.784-7.215-1.54-17.232,7.104-17.6l0.512-0.028
	c0.699-0.002,1.347,0.262,1.823,0.7l0.004-0.002l3.763,3.763l-0.005-9.919c0-0.026,0-0.049,0-0.076
	c0-5.868,4.768-10.632,10.636-10.632c2.622,0,5.017,0.958,6.863,2.528l0.826,0.828c0.003,0.005,0.006,0.011,0.009,0.016
	L56.38,25.687C54.055,13.592,43.434,4.447,30.66,4.447c-14.478,0-26.213,11.735-26.213,26.212c0,12.495,8.75,22.934,20.453,25.56
	L14.371,45.69L14.112,45.435z"/>
<path fill="#B44726" d="M30.66,61.317c16.836,0,30.541-13.642,30.652-30.453c0.001-0.068,0.006-0.136,0.006-0.205
	c0-0.011-0.001-0.022-0.001-0.034l-2.089-2.089c0.006,0.089,0.018,0.178,0.023,0.267c0.039,0.614,0.066,1.232,0.066,1.856
	c0,15.802-12.856,28.658-28.658,28.658c-0.859,0-1.708-0.045-2.549-0.119c-0.088-0.008-0.174-0.021-0.262-0.029l2.128,2.128
	c0.081,0.002,0.161,0.008,0.242,0.01C30.367,61.308,30.513,61.317,30.66,61.317z"/>
<path fill="#B44726" d="M24.136,30.041c0,1.439-1.056,2.595-2.483,2.601l-0.008-0.001c-2.987,0-5.406,2.421-5.406,5.405
	c0,1.38,0.496,2.641,1.353,3.602c0.114,0.082,0.219,0.171,0.323,0.273c0.994,0.966,2.325,1.552,3.791,1.552
	c2.972,0,5.39-2.407,5.404-5.38c0-0.009,0-0.018,0-0.025l-0.003-6.069l-3.763-3.763l-0.004,0.002
	C23.826,28.686,24.136,29.317,24.136,30.041z"/>
<path fill="#B44726" d="M30.66,56.869c14.476,0,26.212-11.734,26.212-26.211c0-1.59-0.149-3.145-0.421-4.656
	c-0.02-0.106-0.051-0.208-0.071-0.315L45.436,14.743c0.289,0.42,0.468,0.93,0.468,1.487c0,1.443-1.169,2.616-2.613,2.616
	c-0.729,0-1.385-0.296-1.851-0.763c-0.956-0.928-2.281-1.507-3.74-1.507c-2.983,0-5.405,2.422-5.405,5.405c0,0.09,0,4.887,0,4.887
	c0,0.287,0.231,0.52,0.517,0.52l3.318-0.004c1.416-0.005,2.584,1.153,2.584,2.573c0,1.385-0.996,2.556-2.366,2.628
	c-0.019,0.002-0.221,0.014-0.267,0.014l-3.185-0.004c-0.288,0-0.52,0.23-0.52,0.518c0,0-0.001,0.004-0.001,0.005
	c-0.001,1.648-0.007,3.294,0.019,4.943c0,0.196-0.011,0.388-0.019,0.581c-0.254,5.57-5.092,9.976-10.613,10.061
	c-2.764,0.008-5.386-1.145-7.391-3.013L24.9,56.218c0.105,0.023,0.207,0.059,0.313,0.081C26.971,56.671,28.792,56.869,30.66,56.869z
	"/>
</svg>
