<?xml version="1.0" encoding="utf-8"?>
<!-- Generator: Adobe Illustrator 16.0.0, SVG Export Plug-In . SVG Version: 6.00 Build 0)  -->
<svg version="1.2" baseProfile="tiny" id="Layer_1" xmlns="http://www.w3.org/2000/svg" xmlns:xlink="http://www.w3.org/1999/xlink"
	 x="0px" y="0px" width="61.318px" height="61.316px" viewBox="0 0 61.318 61.316" xml:space="preserve">
<path d="M30.66,0C13.754,0,0,13.753,0,30.658c0,16.758,13.517,30.409,30.221,30.646c0.146,0.002,0.293,0.012,0.439,0.012
	c16.836,0,30.541-13.643,30.652-30.454c0-0.067,0.006-0.136,0.006-0.204C61.318,13.753,47.564,0,30.66,0z M59.318,30.658
	c0,15.802-12.856,28.658-28.658,28.658c-0.859,0-1.708-0.045-2.549-0.118C13.499,57.902,2,45.601,2,30.658
	C2,14.855,14.857,2,30.66,2c15.178,0,27.631,11.861,28.592,26.802C59.291,29.417,59.318,30.034,59.318,30.658z"/>
<path d="M56.451,26.002C54.253,13.748,43.546,4.445,30.66,4.445c-14.478,0-26.213,11.735-26.213,26.213
	c0,12.607,8.904,23.133,20.767,25.641c1.757,0.371,3.578,0.57,5.446,0.57c14.477,0,26.212-11.734,26.212-26.211
	C56.872,29.067,56.723,27.514,56.451,26.002z M43.29,18.846c-0.729,0-1.386-0.296-1.851-0.763c-0.957-0.928-2.281-1.507-3.74-1.507
	c-2.983,0-5.405,2.422-5.405,5.404c0,0.09,0,4.888,0,4.888c0,0.287,0.231,0.52,0.517,0.52l3.318-0.004
	c1.416-0.005,2.584,1.153,2.584,2.573c0,1.385-0.996,2.556-2.365,2.627c-0.02,0.002-0.222,0.014-0.268,0.014l-3.186-0.004
	c-0.287,0-0.52,0.231-0.52,0.518c0,0-0.001,0.005-0.001,0.007c-0.001,1.647-0.007,3.294,0.019,4.942c0,0.196-0.011,0.388-0.019,0.58
	c-0.254,5.57-5.092,9.978-10.613,10.062c-2.764,0.007-5.386-1.146-7.391-3.014l-0.259-0.256c-0.118-0.142-0.226-0.288-0.212-0.269
	c-5.784-7.216-1.54-17.232,7.104-17.602l0.512-0.027c1.412-0.003,2.619,1.068,2.619,2.504c0,1.438-1.056,2.594-2.483,2.601
	l-0.008-0.001c-2.987,0-5.406,2.421-5.406,5.404c0,1.381,0.496,2.641,1.353,3.602c0.114,0.082,0.219,0.172,0.323,0.274
	c0.994,0.966,2.325,1.552,3.791,1.552c2.972,0,5.39-2.408,5.404-5.38c0-0.009,0-0.018,0-0.025L27.1,22.078c0-0.026,0-0.05,0-0.076
	c0-5.868,4.768-10.632,10.636-10.632c2.621,0,5.017,0.958,6.863,2.527l0.825,0.828c0.296,0.423,0.478,0.938,0.478,1.502
	C45.902,17.673,44.734,18.846,43.29,18.846z"/>
</svg>
